<?xml version="1.0" encoding="utf-8" standalone="no"?>
<!DOCTYPE svg PUBLIC "-//W3C//DTD SVG 1.1//EN"
  "http://www.w3.org/Graphics/SVG/1.1/DTD/svg11.dtd">
<!-- Created with matplotlib (http://matplotlib.org/) -->
<svg height="288pt" version="1.1" viewBox="0 0 288 288" width="288pt" xmlns="http://www.w3.org/2000/svg" xmlns:xlink="http://www.w3.org/1999/xlink">
 <defs>
  <style type="text/css">
*{stroke-linecap:butt;stroke-linejoin:round;}
  </style>
 </defs>
 <g id="figure_1">
  <g id="patch_1">
   <path d="
M0 288
L288 288
L288 0
L0 0
z
" style="fill:#ffffff;"/>
  </g>
  <g id="axes_1">
   <g id="patch_2">
    <path d="
M48.96 250.56
L276.48 250.56
L276.48 20.16
L48.96 20.16
z
" style="fill:#ffffff;"/>
   </g>
   <g id="line2d_1">
    <path clip-path="url(#p635c18cc2f)" d="
M48.96 239.775
L55.7856 238.448
L62.0424 237.01
L67.7304 235.477
L72.8496 233.87
L77.6844 232.115
L81.9504 230.336
L85.932 228.443
L89.6292 226.451
L93.042 224.377
L96.4548 222.041
L99.5832 219.633
L102.712 216.931
L105.556 214.182
L108.4 211.115
L110.959 208.044
L113.519 204.642
L116.078 200.867
L118.638 196.674
L121.198 192.013
L123.757 186.829
L126.032 181.739
L128.308 176.153
L130.867 169.232
L133.427 161.596
L135.986 153.222
L138.546 144.118
L141.39 133.218
L145.087 118.122
L151.06 93.5987
L153.335 85.2191
L155.041 79.6713
L156.463 75.6778
L157.885 72.3634
L159.023 70.2606
L160.16 68.6867
L161.014 67.8712
L161.867 67.3784
L162.72 67.2135
L163.573 67.3784
L164.426 67.8712
L165.28 68.6867
L166.133 69.8162
L167.27 71.79
L168.408 74.2653
L169.83 77.9986
L171.252 82.3522
L172.958 88.249
L175.234 96.952
L178.931 112.175
L184.334 134.341
L187.463 146.202
L190.307 156.095
L192.866 164.222
L195.426 171.616
L197.986 178.308
L200.545 184.344
L203.105 189.777
L205.664 194.663
L208.224 199.058
L210.784 203.013
L213.343 206.575
L215.903 209.788
L218.747 212.996
L221.591 215.867
L224.435 218.444
L227.563 220.98
L230.692 223.244
L234.104 225.444
L237.802 227.554
L241.783 229.554
L246.049 231.431
L250.6 233.178
L255.434 234.792
L260.838 236.35
L266.526 237.759
L272.783 239.084
L276.196 239.724
L276.196 239.724" style="fill:none;stroke:#008000;stroke-linecap:square;"/>
   </g>
   <g id="line2d_2">
    <path clip-path="url(#p635c18cc2f)" d="
M48.96 243.018
L55.2168 241.798
L60.9048 240.46
L66.024 239.025
L70.5744 237.523
L74.8404 235.882
L78.822 234.109
L82.5192 232.214
L85.932 230.218
L89.0604 228.145
L92.1888 225.806
L95.0328 223.414
L97.8768 220.736
L100.721 217.733
L103.28 214.717
L105.84 211.368
L108.4 207.649
L110.959 203.518
L113.519 198.931
L116.078 193.842
L118.638 188.205
L121.198 181.972
L123.757 175.104
L126.317 167.564
L128.876 159.332
L131.72 149.373
L134.564 138.597
L137.977 124.728
L142.812 103.964
L147.931 82.1884
L150.491 72.2092
L152.482 65.2173
L154.188 59.9248
L155.61 56.0994
L157.032 52.8734
L158.17 50.7616
L159.307 49.093
L160.16 48.1442
L161.014 47.4619
L161.867 47.0506
L162.72 46.9132
L163.573 47.0506
L164.426 47.4619
L165.28 48.1442
L166.133 49.093
L167.27 50.7616
L168.408 52.8734
L169.83 56.0994
L171.252 59.9248
L172.958 65.2173
L174.949 72.2092
L177.224 81.0361
L180.353 94.1178
L190.022 135.217
L193.151 147.281
L195.995 157.408
L198.839 166.684
L201.398 174.3
L203.958 181.241
L206.518 187.542
L209.077 193.244
L211.637 198.391
L214.196 203.032
L216.756 207.211
L219.316 210.974
L221.875 214.362
L224.435 217.413
L227.279 220.451
L230.123 223.16
L232.967 225.578
L236.095 227.944
L239.224 230.039
L242.636 232.058
L246.334 233.972
L250.315 235.764
L254.581 237.421
L259.132 238.937
L263.966 240.313
L269.37 241.612
L275.342 242.813
L276.196 242.967
L276.196 242.967" style="fill:none;stroke:#008000;stroke-linecap:square;"/>
   </g>
   <g id="line2d_3">
    <path clip-path="url(#p635c18cc2f)" d="
M48.96 245.282
L54.9324 244.241
L60.336 243.08
L65.1708 241.82
L69.7212 240.398
L73.7028 238.925
L77.4 237.328
L80.8128 235.623
L84.2256 233.658
L87.354 231.592
L90.198 229.459
L93.042 227.05
L95.886 224.327
L98.4456 221.573
L101.005 218.497
L103.565 215.062
L106.124 211.227
L108.684 206.95
L111.244 202.187
L113.803 196.891
L116.363 191.017
L118.922 184.525
L121.482 177.376
L124.042 169.544
L126.601 161.016
L129.445 150.735
L132.574 138.505
L135.986 124.227
L141.106 101.692
L146.225 79.3898
L149.069 67.9721
L151.344 59.746
L153.335 53.4217
L155.041 48.7756
L156.463 45.5191
L157.885 42.8705
L159.023 41.215
L160.16 39.9883
L161.014 39.3569
L161.867 38.9767
L162.72 38.8497
L163.573 38.9767
L164.426 39.3569
L165.28 39.9883
L166.133 40.8676
L167.27 42.4172
L168.408 44.3844
L169.83 47.4028
L171.252 51.0027
L172.958 56.0209
L174.949 62.7179
L177.224 71.2838
L180.068 82.9949
L184.334 101.692
L190.591 129.08
L194.004 143.057
L197.132 154.947
L199.976 164.892
L202.536 173.11
L205.096 180.636
L207.655 187.489
L210.215 193.702
L212.774 199.313
L215.334 204.367
L217.894 208.909
L220.453 212.984
L223.013 216.636
L225.572 219.906
L228.132 222.835
L230.976 225.73
L233.82 228.291
L236.664 230.557
L239.792 232.753
L242.921 234.676
L246.334 236.506
L250.031 238.218
L254.012 239.795
L258.278 241.229
L262.829 242.516
L267.948 243.72
L273.636 244.814
L276.196 245.237
L276.196 245.237" style="fill:none;stroke:#008000;stroke-linecap:square;"/>
   </g>
   <g id="line2d_4">
    <path clip-path="url(#p635c18cc2f)" d="
M48.96 246.696
L54.9324 245.777
L60.336 244.725
L65.1708 243.556
L69.4368 242.3
L73.4184 240.894
L77.1156 239.347
L80.5284 237.67
L83.6568 235.887
L86.5008 234.03
L89.3448 231.914
L92.1888 229.503
L94.7484 227.046
L97.308 224.284
L99.8676 221.179
L102.427 217.692
L104.987 213.782
L107.262 209.914
L109.537 205.644
L111.812 200.94
L114.088 195.771
L116.647 189.362
L119.207 182.291
L121.766 174.529
L124.326 166.065
L127.17 155.843
L130.014 144.802
L133.427 130.601
L137.693 111.786
L145.656 76.4244
L148.5 64.9372
L150.775 56.6508
L152.766 50.2503
L154.472 45.5086
L155.894 42.1442
L157.316 39.3576
L158.454 37.5678
L159.592 36.1849
L160.445 35.4216
L161.298 34.8971
L162.151 34.614
L163.004 34.5735
L163.858 34.7758
L164.711 35.2201
L165.564 35.9041
L166.417 36.8247
L167.555 38.4127
L168.692 40.4005
L170.114 43.4228
L171.536 47.0071
L173.243 51.9888
L175.234 58.6329
L177.509 67.1461
L180.068 77.6267
L183.766 93.8315
L192.866 134.237
L196.279 148.196
L199.408 160.033
L202.252 169.914
L204.811 178.065
L207.371 185.517
L209.93 192.29
L212.49 198.416
L215.05 203.933
L217.609 208.885
L220.169 213.319
L222.728 217.279
L225.288 220.811
L227.848 223.956
L230.407 226.755
L232.967 229.244
L235.811 231.687
L238.655 233.831
L241.499 235.712
L244.627 237.518
L248.04 239.217
L251.453 240.673
L255.15 242.019
L259.416 243.323
L263.966 244.471
L269.086 245.523
L274.774 246.456
L276.196 246.657
L276.196 246.657" style="fill:none;stroke:#008000;stroke-linecap:square;"/>
   </g>
   <g id="line2d_5">
    <path clip-path="url(#p635c18cc2f)" d="
M48.96 247.609
L55.2168 246.751
L60.6204 245.785
L65.4552 244.688
L69.7212 243.488
L73.4184 242.23
L76.8312 240.852
L80.244 239.226
L83.3724 237.479
L86.2164 235.641
L89.0604 233.53
L91.62 231.364
L94.1796 228.912
L96.7392 226.138
L99.2988 223.005
L101.574 219.884
L103.849 216.414
L106.124 212.565
L108.4 208.302
L110.675 203.595
L112.95 198.41
L115.225 192.719
L117.785 185.68
L120.344 177.943
L122.904 169.494
L125.748 159.277
L128.592 148.229
L132.005 133.994
L135.986 116.365
L145.656 73.0708
L148.216 62.7649
L150.491 54.4746
L152.482 48.0643
L154.188 43.3012
L155.61 39.9053
L157.032 37.0714
L158.17 35.231
L159.307 33.7849
L160.445 32.744
L161.298 32.2342
L162.151 31.959
L163.004 31.9197
L163.858 32.1163
L164.711 32.5481
L165.564 33.2132
L166.702 34.4579
L167.839 36.1027
L168.977 38.1353
L170.399 41.1982
L171.821 44.8086
L173.527 49.8069
L175.518 56.458
L177.793 64.9751
L180.353 75.4728
L183.766 90.4749
L194.857 140.043
L198.27 153.853
L201.114 164.493
L203.958 174.276
L206.518 182.329
L209.077 189.675
L211.637 196.336
L214.196 202.344
L216.756 207.739
L219.316 212.565
L221.875 216.868
L224.435 220.695
L226.994 224.092
L229.554 227.101
L232.114 229.763
L234.673 232.116
L237.517 234.41
L240.361 236.407
L243.205 238.145
L246.334 239.798
L249.746 241.337
L253.444 242.74
L257.425 243.997
L261.691 245.104
L266.526 246.117
L271.93 247.01
L276.196 247.575
L276.196 247.575" style="fill:none;stroke:#008000;stroke-linecap:square;"/>
   </g>
   <g id="line2d_6">
    <path clip-path="url(#p635c18cc2f)" d="
M48.96 248.225
L55.2168 247.459
L60.6204 246.577
L65.1708 245.624
L69.4368 244.506
L73.134 243.319
L76.5468 242.003
L79.6752 240.576
L82.8036 238.899
L85.6476 237.122
L88.4916 235.066
L91.0512 232.942
L93.6108 230.524
L96.1704 227.776
L98.4456 225.023
L100.721 221.946
L102.996 218.514
L105.271 214.695
L107.546 210.454
L109.822 205.758
L112.097 200.577
L114.372 194.881
L116.932 187.826
L119.491 180.063
L122.051 171.579
L124.895 161.314
L127.739 150.209
L130.867 137.126
L134.849 119.452
L145.656 70.7774
L148.216 60.534
L150.491 52.3237
L152.482 45.9933
L154.188 41.2996
L155.61 37.9585
L157.032 35.1736
L158.17 33.3667
L159.307 31.9478
L160.445 30.927
L161.298 30.4271
L162.151 30.1574
L163.004 30.1188
L163.858 30.3116
L164.711 30.7349
L165.564 31.3871
L166.702 32.608
L167.839 34.2224
L168.977 36.2188
L170.399 39.23
L171.821 42.7841
L173.527 47.7127
L175.518 54.2855
L177.793 62.7274
L180.353 73.1708
L183.766 88.1697
L196.279 144.366
L199.408 156.969
L202.252 167.577
L205.096 177.315
L207.655 185.318
L210.215 192.607
L212.774 199.203
L215.334 205.138
L217.609 209.892
L219.884 214.188
L222.16 218.059
L224.435 221.537
L226.994 225.023
L229.554 228.099
L232.114 230.808
L234.673 233.192
L237.233 235.285
L240.077 237.312
L242.921 239.063
L246.049 240.716
L249.178 242.122
L252.59 243.418
L256.288 244.588
L260.554 245.69
L265.104 246.63
L270.223 247.459
L276.196 248.195
L276.196 248.195" style="fill:none;stroke:#008000;stroke-linecap:square;"/>
   </g>
   <g id="line2d_7">
    <path clip-path="url(#p635c18cc2f)" d="
M48.96 248.657
L55.2168 247.968
L60.6204 247.157
L65.4552 246.203
L69.7212 245.127
L73.4184 243.97
L76.8312 242.676
L79.9596 241.259
L82.8036 239.746
L85.6476 237.983
L88.2072 236.15
L90.7668 234.051
L93.3264 231.649
L95.6016 229.231
L97.8768 226.513
L100.152 223.467
L102.427 220.059
L104.702 216.255
L106.978 212.022
L109.253 207.326
L111.528 202.135
L113.803 196.421
L116.363 189.337
L118.922 181.534
L121.482 173.003
L124.326 162.678
L127.17 151.508
L130.298 138.349
L134.28 120.571
L145.372 70.2994
L147.931 59.9997
L150.206 51.7306
L152.197 45.3364
L153.904 40.5757
L155.326 37.1681
L156.748 34.3062
L157.885 32.4296
L159.023 30.9336
L160.16 29.8284
L161.014 29.2605
L161.867 28.9189
L162.72 28.8049
L163.573 28.9189
L164.426 29.2605
L165.28 29.8284
L166.133 30.6203
L167.27 32.0194
L168.408 33.802
L169.546 35.9561
L170.968 39.1493
L172.39 42.8681
L174.096 47.972
L176.087 54.7204
L178.362 63.3283
L180.922 73.921
L184.334 89.0725
L196.564 144.434
L199.692 157.194
L202.536 167.95
L205.38 177.832
L207.94 185.959
L210.499 193.36
L213.059 200.055
L215.618 206.076
L217.894 210.892
L220.169 215.238
L222.444 219.146
L224.719 222.65
L226.994 225.784
L229.27 228.58
L231.829 231.362
L234.389 233.799
L236.948 235.931
L239.508 237.792
L242.352 239.582
L245.196 241.118
L248.324 242.557
L251.737 243.871
L255.434 245.046
L259.416 246.073
L263.966 247.006
L269.086 247.816
L275.058 248.52
L276.196 248.631
L276.196 248.631" style="fill:none;stroke:#008000;stroke-linecap:square;"/>
   </g>
   <g id="line2d_8">
    <path clip-path="url(#p635c18cc2f)" d="
M48.96 248.972
L55.5012 248.311
L60.9048 247.548
L65.4552 246.697
L69.7212 245.672
L73.4184 244.558
L76.8312 243.301
L79.9596 241.914
L82.8036 240.423
L85.6476 238.676
L88.2072 236.85
L90.7668 234.749
L93.3264 232.337
L95.6016 229.899
L97.8768 227.153
L100.152 224.065
L102.427 220.604
L104.702 216.735
L106.978 212.422
L109.253 207.634
L111.528 202.337
L113.803 196.505
L116.363 189.274
L118.922 181.314
L121.482 172.618
L124.326 162.109
L127.17 150.76
L130.583 136.17
L134.849 116.831
L144.234 73.8684
L147.078 62.0821
L149.353 53.5159
L151.344 46.8113
L153.05 41.7469
L154.757 37.3849
L156.179 34.3304
L157.601 31.836
L158.738 30.2606
L159.876 29.07
L160.729 28.4343
L161.582 28.0217
L162.436 27.8339
L163.289 27.8715
L164.142 28.1343
L164.995 28.6215
L165.848 29.3311
L166.986 30.6187
L168.124 32.2888
L169.261 34.3304
L170.683 37.3849
L172.105 40.9694
L173.812 45.9213
L175.802 52.5097
L178.078 60.9645
L180.637 71.4313
L183.766 85.211
L189.169 110.224
L194.573 134.913
L198.27 150.76
L201.398 163.199
L204.242 173.621
L206.802 182.235
L209.362 190.113
L211.921 197.264
L214.481 203.711
L216.756 208.877
L219.031 213.544
L221.306 217.742
L223.582 221.506
L225.857 224.871
L228.132 227.87
L230.407 230.536
L232.967 233.178
L235.526 235.482
L238.086 237.487
L240.646 239.229
L243.49 240.896
L246.334 242.317
L249.462 243.638
L252.875 244.836
L256.572 245.897
L260.838 246.873
L265.388 247.684
L270.792 248.412
L276.196 248.948
L276.196 248.948" style="fill:none;stroke:#008000;stroke-linecap:square;"/>
   </g>
   <g id="line2d_9">
    <path clip-path="url(#p635c18cc2f)" d="
M48.96 249.209
L55.5012 248.602
L60.9048 247.89
L65.7396 247.026
L69.7212 246.104
L73.4184 245.028
L76.8312 243.804
L79.9596 242.445
L82.8036 240.975
L85.6476 239.244
L88.2072 237.426
L90.7668 235.327
L93.042 233.194
L95.3172 230.78
L97.5924 228.052
L99.8676 224.979
L102.143 221.526
L104.418 217.658
L106.693 213.34
L108.968 208.539
L111.244 203.223
L113.519 197.363
L115.794 190.938
L118.354 183.015
L120.913 174.35
L123.757 163.868
L126.601 152.535
L130.014 137.949
L133.996 119.899
L144.518 71.6437
L147.362 59.9905
L149.638 51.5704
L151.628 45.0173
L153.335 40.0968
L155.041 35.8881
L156.463 32.966
L157.885 30.6061
L159.023 29.1386
L160.16 28.055
L161.014 27.4984
L161.867 27.1636
L162.72 27.0519
L163.573 27.1636
L164.426 27.4984
L165.28 28.055
L166.133 28.8314
L167.27 30.2037
L168.408 31.9532
L169.546 34.0689
L170.968 37.2082
L172.39 40.8691
L174.096 45.9021
L176.087 52.5718
L178.362 61.1044
L180.922 71.6437
L184.05 85.4974
L189.738 111.954
L195.142 136.691
L198.839 152.535
L201.967 164.955
L204.811 175.35
L207.371 183.932
L209.93 191.773
L212.49 198.88
L215.05 205.279
L217.325 210.398
L219.6 215.014
L221.875 219.159
L224.15 222.867
L226.426 226.174
L228.701 229.114
L230.976 231.72
L233.536 234.294
L236.095 236.53
L238.655 238.468
L241.214 240.145
L244.058 241.741
L246.902 243.094
L250.031 244.344
L253.444 245.47
L257.141 246.459
L261.407 247.36
L266.242 248.14
L271.645 248.783
L276.196 249.187
L276.196 249.187" style="fill:none;stroke:#008000;stroke-linecap:square;"/>
   </g>
   <g id="line2d_10">
    <path clip-path="url(#p635c18cc2f)" d="
M48.96 249.39
L55.5012 248.829
L60.9048 248.16
L65.7396 247.34
L70.0056 246.381
L73.7028 245.321
L77.1156 244.106
L80.244 242.749
L83.088 241.274
L85.6476 239.717
L88.2072 237.908
L90.7668 235.812
L93.042 233.677
L95.3172 231.253
L97.5924 228.509
L99.8676 225.411
L102.143 221.925
L104.418 218.015
L106.693 213.646
L108.968 208.783
L111.244 203.397
L113.519 197.458
L115.794 190.947
L118.354 182.919
L120.913 174.144
L123.757 163.539
L126.601 152.087
L130.014 137.369
L134.28 117.871
L143.665 74.5226
L146.509 62.576
L148.784 53.8529
L150.775 46.9847
L152.482 41.7576
L154.188 37.2105
L155.61 33.9838
L157.032 31.3009
L158.17 29.5632
L159.307 28.2004
L160.445 27.2209
L161.298 26.7415
L162.151 26.4829
L163.004 26.4459
L163.858 26.6307
L164.711 27.0366
L165.564 27.6623
L166.702 28.8343
L167.839 30.3858
L168.977 32.3071
L170.399 35.2108
L171.821 38.6468
L173.527 43.4276
L175.234 48.8668
L177.224 55.9526
L179.5 64.8823
L182.344 77.0218
L186.041 93.8663
L196.279 141.137
L199.692 155.606
L202.82 167.887
L205.664 178.136
L208.224 186.579
L210.784 194.275
L213.343 201.236
L215.618 206.826
L217.894 211.882
L220.169 216.432
L222.444 220.51
L224.719 224.151
L226.994 227.39
L229.27 230.263
L231.545 232.803
L233.82 235.043
L236.38 237.243
L238.939 239.144
L241.499 240.781
L244.343 242.333
L247.187 243.642
L250.315 244.846
L253.728 245.922
L257.425 246.86
L261.691 247.708
L266.526 248.433
L272.214 249.05
L276.196 249.37
L276.196 249.37" style="fill:none;stroke:#008000;stroke-linecap:square;"/>
   </g>
   <g id="line2d_11">
    <path clip-path="url(#p635c18cc2f)" d="
M48.96 249.533
L55.7856 248.983
L61.1892 248.34
L66.024 247.541
L70.0056 246.672
L73.7028 245.641
L77.1156 244.453
L80.244 243.118
L83.088 241.661
L85.6476 240.116
L88.2072 238.317
L90.7668 236.225
L93.042 234.088
L95.3172 231.657
L97.5924 228.9
L99.8676 225.783
L102.143 222.269
L104.418 218.324
L106.693 213.911
L108.968 208.998
L111.244 203.552
L113.519 197.547
L115.794 190.962
L118.354 182.846
L120.913 173.979
L123.757 163.27
L126.886 150.52
L130.298 135.616
L134.849 114.617
L143.096 76.3529
L146.225 63.0688
L148.784 53.222
L150.775 46.3767
L152.482 41.1707
L154.188 36.6444
L155.61 33.4339
L157.032 30.7652
L158.17 29.0372
L159.307 27.6822
L160.445 26.7085
L161.298 26.232
L162.151 25.9749
L163.004 25.9382
L163.858 26.1218
L164.711 26.5254
L165.564 27.1473
L166.702 28.3125
L167.839 29.8552
L168.977 31.766
L170.399 34.6546
L171.821 38.0739
L173.527 42.8336
L175.234 48.252
L177.224 55.3157
L179.5 64.2257
L182.344 76.3529
L186.041 93.2085
L196.848 143.183
L200.261 157.594
L203.389 169.802
L206.233 179.974
L208.793 188.34
L211.352 195.955
L213.912 202.832
L216.187 208.347
L218.462 213.325
L220.738 217.799
L223.013 221.8
L225.288 225.366
L227.563 228.531
L229.838 231.331
L232.114 233.801
L234.389 235.973
L236.948 238.099
L239.508 239.93
L242.068 241.501
L244.912 242.984
L248.04 244.342
L251.168 245.461
L254.581 246.455
L258.563 247.373
L262.829 248.13
L267.948 248.803
L273.92 249.354
L276.196 249.514
L276.196 249.514" style="fill:none;stroke:#008000;stroke-linecap:square;"/>
   </g>
   <g id="line2d_12">
    <path clip-path="url(#p635c18cc2f)" d="
M48.96 249.647
L55.7856 249.132
L61.4736 248.483
L66.3084 247.703
L70.29 246.845
L73.9872 245.823
L77.4 244.637
L80.5284 243.299
L83.3724 241.832
L85.932 240.272
L88.4916 238.45
L91.0512 236.328
L93.3264 234.155
L95.6016 231.679
L97.8768 228.868
L100.152 225.686
L102.427 222.097
L104.702 218.064
L106.978 213.553
L109.253 208.53
L111.528 202.964
L113.803 196.83
L116.363 189.226
L118.922 180.867
L121.482 171.756
L124.326 160.784
L127.454 147.77
L131.152 131.33
L136.271 107.397
L142.528 78.3206
L145.656 64.8424
L148.216 54.7828
L150.491 46.7946
L152.482 40.68
L154.188 36.1711
L155.61 32.9742
L157.032 30.3175
L158.17 28.5976
L159.307 27.2492
L160.445 26.2803
L161.298 25.8062
L162.151 25.5504
L163.004 25.5138
L163.858 25.6966
L164.711 26.0981
L165.564 26.7169
L166.702 27.8765
L167.839 29.4117
L168.977 31.3137
L170.399 34.1896
L171.821 37.5949
L173.527 42.3369
L175.234 47.7378
L177.224 54.7828
L179.5 63.6759
L182.344 75.7925
L186.041 92.6569
L197.132 144.067
L200.545 158.488
L203.674 170.698
L206.518 180.867
L209.077 189.226
L211.637 196.83
L214.196 203.69
L216.472 209.187
L218.747 214.145
L221.022 218.594
L223.297 222.569
L225.572 226.105
L227.848 229.239
L230.123 232.006
L232.398 234.442
L234.673 236.58
L237.233 238.667
L239.792 240.458
L242.352 241.991
L245.196 243.432
L248.324 244.746
L251.453 245.823
L254.866 246.775
L258.847 247.648
L263.398 248.403
L268.517 249.021
L274.774 249.539
L276.196 249.63
L276.196 249.63" style="fill:none;stroke:#008000;stroke-linecap:square;"/>
   </g>
   <g id="line2d_13">
    <path clip-path="url(#p635c18cc2f)" d="
M48.96 249.74
L56.07 249.229
L61.758 248.598
L66.3084 247.884
L70.29 247.052
L73.9872 246.054
L77.4 244.889
L80.5284 243.57
L83.3724 242.117
L85.932 240.569
L88.4916 238.755
L90.7668 236.888
L93.042 234.751
L95.3172 232.311
L97.5924 229.535
L99.8676 226.387
L102.143 222.832
L104.418 218.831
L106.693 214.35
L108.968 209.355
L111.244 203.814
L113.519 197.703
L115.794 191.002
L118.354 182.746
L120.913 173.732
L123.757 162.859
L126.886 149.935
L130.298 134.862
L134.849 113.69
L142.528 77.8439
L145.656 64.3739
L148.216 54.3303
L150.206 47.3013
L152.197 41.0802
L153.904 36.469
L155.326 33.179
L156.748 30.4227
L157.885 28.6187
L159.023 27.1825
L160.16 26.1226
L161.014 25.5783
L161.867 25.251
L162.72 25.1418
L163.573 25.251
L164.426 25.5783
L165.28 26.1226
L166.417 27.1825
L167.555 28.6187
L168.692 30.4227
L170.114 33.179
L171.536 36.469
L173.243 41.0802
L174.949 46.3606
L176.94 53.2808
L179.215 62.0553
L181.775 72.8201
L185.188 88.2155
L192.866 124.385
L197.132 143.765
L200.545 158.27
L203.674 170.563
L206.518 180.808
L209.077 189.233
L211.637 196.898
L214.196 203.814
L216.472 209.355
L218.747 214.35
L221.022 218.831
L223.297 222.832
L225.572 226.387
L227.848 229.535
L230.123 232.311
L232.398 234.751
L234.673 236.888
L237.233 238.971
L239.792 240.753
L242.352 242.275
L245.196 243.701
L248.04 244.889
L251.168 245.966
L254.581 246.914
L258.563 247.779
L263.113 248.521
L268.232 249.122
L274.489 249.621
L276.196 249.724
L276.196 249.724" style="fill:none;stroke:#008000;stroke-linecap:square;"/>
   </g>
   <g id="line2d_14">
    <path clip-path="url(#p635c18cc2f)" d="
M48.96 249.817
L56.07 249.334
L61.758 248.729
L66.5928 247.989
L70.5744 247.163
L74.2716 246.167
L77.4 245.108
L80.5284 243.805
L83.3724 242.366
L85.932 240.827
L88.4916 239.021
L90.7668 237.158
L93.042 235.021
L95.3172 232.579
L97.5924 229.796
L99.8676 226.637
L102.143 223.064
L104.418 219.042
L106.693 214.533
L108.968 209.505
L111.244 203.926
L113.519 197.772
L115.794 191.023
L118.354 182.71
L120.913 173.638
L123.757 162.698
L126.886 149.704
L130.298 134.564
L135.133 111.974
L142.243 78.7085
L145.372 65.1461
L147.931 55.0032
L150.206 46.9262
L152.197 40.7203
L153.904 36.122
L155.326 32.8422
L156.748 30.0949
L157.885 28.2971
L159.023 26.866
L160.16 25.8099
L161.014 25.2677
L161.867 24.9416
L162.72 24.8328
L163.573 24.9416
L164.426 25.2677
L165.28 25.8099
L166.417 26.866
L167.555 28.2971
L168.692 30.0949
L170.114 32.8422
L171.536 36.122
L173.243 40.7203
L174.949 45.9876
L176.94 52.8937
L179.215 61.6551
L181.775 72.4111
L185.188 87.8083
L191.729 118.704
L196.564 140.979
L199.976 155.727
L203.105 168.278
L205.949 178.771
L208.508 187.423
L211.068 195.311
L213.628 202.442
L215.903 208.163
L218.178 213.326
L220.453 217.962
L222.728 222.102
L225.004 225.784
L227.279 229.043
L229.554 231.916
L231.829 234.441
L234.104 236.651
L236.38 238.579
L238.939 240.45
L241.499 242.045
L244.343 243.538
L247.187 244.778
L250.315 245.9
L253.728 246.883
L257.425 247.719
L261.691 248.454
L266.526 249.062
L272.498 249.576
L276.196 249.802
L276.196 249.802" style="fill:none;stroke:#008000;stroke-linecap:square;"/>
   </g>
   <g id="line2d_15">
    <path clip-path="url(#p635c18cc2f)" d="
M48.96 249.881
L56.07 249.422
L61.758 248.841
L66.5928 248.123
L70.5744 247.318
L74.2716 246.341
L77.4 245.298
L80.244 244.139
L83.088 242.739
L85.6476 241.238
L88.2072 239.47
L90.4824 237.643
L92.7576 235.544
L95.0328 233.14
L97.308 230.396
L99.5832 227.276
L101.858 223.744
L104.134 219.761
L106.409 215.291
L108.684 210.301
L110.959 204.76
L113.234 198.641
L115.51 191.926
L118.069 183.648
L120.629 174.608
L123.473 163.698
L126.601 150.729
L130.014 135.603
L134.564 114.355
L142.243 78.3517
L145.372 64.7949
L147.931 54.6636
L150.206 46.6004
L152.197 40.4077
L153.904 35.8207
L155.326 32.5497
L156.748 29.8104
L157.885 28.0179
L159.023 26.5913
L160.16 25.5385
L161.014 24.998
L161.867 24.673
L162.72 24.5646
L163.573 24.673
L164.426 24.998
L165.28 25.5385
L166.417 26.5913
L167.555 28.0179
L168.692 29.8104
L170.114 32.5497
L171.536 35.8207
L173.243 40.4077
L174.949 45.6636
L176.94 52.5574
L179.215 61.3072
L181.775 72.0555
L185.188 87.4541
L191.444 117.052
L196.564 140.743
L199.976 155.554
L203.105 168.167
L205.949 178.719
L208.508 187.422
L211.068 195.359
L213.628 202.534
L215.903 208.289
L218.178 213.483
L220.453 218.144
L222.728 222.305
L225.004 226.002
L227.279 229.272
L229.554 232.153
L231.829 234.68
L234.104 236.89
L236.38 238.815
L238.939 240.68
L241.499 242.266
L244.343 243.746
L247.187 244.973
L250.315 246.078
L253.728 247.043
L257.425 247.861
L261.691 248.575
L266.81 249.19
L272.783 249.672
L276.196 249.867
L276.196 249.867" style="fill:none;stroke:#008000;stroke-linecap:square;"/>
   </g>
   <g id="line2d_16">
    <path clip-path="url(#p635c18cc2f)" d="
M48.96 249.935
L56.07 249.497
L61.758 248.938
L66.5928 248.24
L70.5744 247.453
L74.2716 246.494
L77.4 245.466
L80.244 244.319
L83.088 242.931
L85.6476 241.439
L88.2072 239.678
L90.4824 237.855
L92.7576 235.758
L95.0328 233.352
L97.308 230.604
L99.5832 227.476
L101.858 223.931
L104.134 219.932
L106.409 215.441
L108.684 210.426
L110.959 204.855
L113.234 198.703
L115.51 191.952
L118.069 183.63
L120.629 174.543
L123.473 163.581
L126.601 150.558
L130.014 135.379
L134.849 112.724
L142.243 78.0385
L145.372 64.4869
L147.931 54.3659
L150.206 46.3147
L152.197 40.1337
L153.904 35.5566
L155.326 32.2934
L156.748 29.561
L157.885 27.7733
L159.023 26.3505
L160.16 25.3007
L161.014 24.7617
L161.867 24.4377
L162.72 24.3295
L163.573 24.4377
L164.426 24.7617
L165.28 25.3007
L166.417 26.3505
L167.555 27.7733
L168.692 29.561
L170.114 32.2934
L171.536 35.5566
L173.243 40.1337
L174.949 45.3796
L176.94 52.2625
L179.215 61.0021
L181.775 71.7435
L185.188 87.1432
L191.16 115.429
L196.279 139.255
L199.976 155.403
L203.105 168.072
L205.949 178.675
L208.508 187.424
L211.068 195.403
L213.628 202.617
L215.903 208.404
L218.178 213.624
L220.453 218.307
L222.728 222.486
L225.004 226.197
L227.279 229.477
L229.554 232.364
L231.829 234.894
L234.104 237.103
L236.38 239.025
L238.939 240.883
L241.499 242.461
L244.343 243.93
L247.187 245.145
L250.315 246.235
L253.728 247.184
L257.425 247.985
L261.691 248.68
L266.81 249.274
L272.783 249.736
L276.196 249.922
L276.196 249.922" style="fill:none;stroke:#008000;stroke-linecap:square;"/>
   </g>
   <g id="line2d_17">
    <path clip-path="url(#p635c18cc2f)" d="
M48.96 249.981
L56.3544 249.541
L62.0424 248.988
L66.8772 248.295
L70.8588 247.508
L74.556 246.546
L77.6844 245.511
L80.5284 244.353
L83.3724 242.949
L85.932 241.437
L88.4916 239.65
L90.7668 237.799
L93.042 235.666
L95.3172 233.218
L97.5924 230.42
L99.8676 227.234
L102.143 223.624
L104.418 219.55
L106.693 214.977
L108.968 209.871
L111.244 204.201
L113.519 197.945
L115.794 191.085
L118.354 182.638
L120.913 173.426
L123.757 162.331
L126.886 149.174
L130.583 132.564
L135.986 107.046
L141.959 79.0435
L145.087 65.3977
L147.647 55.1744
L149.922 47.0125
L151.913 40.7195
L153.619 36.0358
L155.041 32.6766
L156.463 29.8423
L157.885 27.5571
L159.023 26.1378
L160.16 25.0906
L161.014 24.553
L161.867 24.2297
L162.72 24.1219
L163.573 24.2297
L164.426 24.553
L165.28 25.0906
L166.417 26.1378
L167.555 27.5571
L168.692 29.3406
L170.114 32.0669
L171.536 35.3233
L173.243 39.8916
L174.949 45.1286
L176.94 52.0018
L179.215 60.7323
L181.775 71.4675
L185.188 86.8681
L190.876 113.831
L196.279 139.068
L199.976 155.269
L203.105 167.988
L205.949 178.637
L208.508 187.426
L211.068 195.444
L213.628 202.693
L215.903 208.507
L218.178 213.751
L220.453 218.455
L222.728 222.65
L225.004 226.373
L227.279 229.662
L229.554 232.553
L231.829 235.085
L234.104 237.293
L236.38 239.212
L238.939 241.065
L241.499 242.635
L244.058 243.96
L246.902 245.187
L250.031 246.286
L253.444 247.239
L257.141 248.04
L261.407 248.732
L266.526 249.321
L272.498 249.775
L276.196 249.969
L276.196 249.969" style="fill:none;stroke:#008000;stroke-linecap:square;"/>
   </g>
   <g id="line2d_18">
    <path clip-path="url(#p635c18cc2f)" d="
M48.96 250.021
L56.3544 249.598
L62.0424 249.063
L66.8772 248.387
L70.8588 247.615
L74.556 246.667
L77.6844 245.644
L80.5284 244.498
L83.3724 243.103
L85.932 241.599
L88.4916 239.818
L90.7668 237.97
L93.042 235.838
L95.3172 233.39
L97.5924 230.588
L99.8676 227.396
L102.143 223.775
L104.418 219.687
L106.693 215.097
L108.968 209.97
L111.244 204.277
L113.519 197.994
L115.794 191.104
L118.354 182.621
L120.913 173.372
L123.757 162.236
L126.886 149.035
L130.583 132.381
L135.986 106.817
L141.959 78.7967
L145.087 65.1545
L147.647 54.9389
L149.922 46.7865
L151.913 40.5027
L153.619 35.8269
L155.041 32.4739
L156.463 29.6452
L157.885 27.3648
L159.023 25.9485
L160.16 24.9036
L161.014 24.3672
L161.867 24.0447
L162.72 23.9371
L163.573 24.0447
L164.426 24.3672
L165.28 24.9036
L166.417 25.9485
L167.555 27.3648
L168.692 29.1445
L170.114 31.8654
L171.536 35.1156
L173.243 39.6761
L174.949 44.9052
L176.94 51.7696
L179.215 60.4921
L181.775 71.2217
L184.903 85.3042
L190.022 109.536
L196.279 138.901
L199.976 155.15
L203.105 167.913
L205.949 178.604
L208.508 187.43
L211.068 195.482
L213.628 202.763
L215.903 208.601
L218.178 213.867
L220.453 218.588
L222.728 222.798
L225.004 226.532
L227.279 229.828
L229.554 232.724
L231.829 235.257
L234.104 237.465
L236.38 239.381
L238.939 241.228
L241.499 242.791
L244.058 244.107
L246.902 245.324
L250.031 246.41
L253.444 247.35
L257.141 248.137
L261.407 248.814
L266.526 249.386
L272.498 249.824
L276.196 250.009
L276.196 250.009" style="fill:none;stroke:#008000;stroke-linecap:square;"/>
   </g>
   <g id="line2d_19">
    <path clip-path="url(#p635c18cc2f)" d="
M48.96 250.056
L56.3544 249.649
L62.0424 249.129
L66.8772 248.468
L70.8588 247.71
L74.556 246.776
L77.6844 245.764
L80.5284 244.627
L83.3724 243.242
L85.932 241.744
L88.4916 239.969
L90.7668 238.124
L93.042 235.995
L95.3172 233.545
L97.5924 230.74
L99.8676 227.542
L102.143 223.912
L104.418 219.813
L106.693 215.207
L108.968 210.062
L111.244 204.347
L113.519 198.039
L115.794 191.123
L118.354 182.607
L120.913 173.325
L123.757 162.151
L126.886 148.912
L130.583 132.217
L135.986 106.612
L141.959 78.5754
L145.087 64.9364
L147.647 54.728
L149.922 46.584
L151.913 40.3085
L153.619 35.6397
L155.041 32.2923
L156.463 29.4686
L157.885 27.1925
L159.023 25.779
L160.16 24.7362
L161.014 24.2009
L161.867 23.879
L162.72 23.7716
L163.573 23.879
L164.426 24.2009
L165.28 24.7362
L166.417 25.779
L167.555 27.1925
L168.692 28.9689
L170.114 31.6848
L171.536 34.9296
L173.243 39.483
L174.949 44.705
L176.94 51.5617
L179.215 60.2767
L181.775 71.0013
L184.903 85.0839
L190.022 109.334
L196.279 138.752
L199.976 155.044
L203.105 167.847
L205.949 178.575
L208.508 187.434
L211.068 195.517
L213.628 202.826
L215.903 208.687
L218.178 213.973
L220.453 218.71
L222.728 222.933
L225.004 226.676
L227.279 229.979
L229.554 232.879
L231.829 235.414
L234.104 237.62
L236.38 239.533
L238.939 241.375
L241.499 242.931
L244.058 244.24
L246.902 245.447
L250.031 246.522
L253.444 247.449
L257.141 248.223
L261.407 248.886
L266.526 249.443
L272.783 249.882
L276.196 250.044
L276.196 250.044" style="fill:none;stroke:#008000;stroke-linecap:square;"/>
   </g>
   <g id="line2d_20">
    <path clip-path="url(#p635c18cc2f)" d="
M48.96 250.086
L56.3544 249.693
L62.0424 249.187
L66.8772 248.541
L70.8588 247.796
L74.556 246.873
L77.6844 245.872
L80.5284 244.745
L83.3724 243.368
L85.932 241.877
L88.4916 240.107
L90.7668 238.265
L93.042 236.137
L95.3172 233.687
L97.5924 230.879
L99.8676 227.676
L102.143 224.038
L104.418 219.927
L106.693 215.308
L108.968 210.145
L111.244 204.411
L113.519 198.081
L115.794 191.14
L118.354 182.596
L120.913 173.282
L123.757 162.075
L126.886 148.8
L130.583 132.07
L135.986 106.427
L141.674 79.6649
L144.803 65.9321
L147.362 55.6204
L149.638 47.3646
L151.628 40.9761
L153.335 36.2
L155.041 32.1287
L156.463 29.3096
L157.885 27.0373
L159.023 25.6263
L160.16 24.5854
L161.014 24.051
L161.867 23.7298
L162.72 23.6226
L163.573 23.7298
L164.426 24.051
L165.28 24.5854
L166.417 25.6263
L167.555 27.0373
L168.692 28.8107
L170.114 31.5222
L171.536 34.762
L173.243 39.3091
L174.949 44.5246
L176.94 51.3742
L179.215 60.0827
L181.775 70.8027
L184.903 84.8853
L190.022 109.152
L196.279 138.617
L199.976 154.948
L203.105 167.788
L205.949 178.55
L208.508 187.439
L211.068 195.55
L213.628 202.885
L215.903 208.766
L218.178 214.069
L220.453 218.821
L222.728 223.056
L225.004 226.808
L227.279 230.117
L229.554 233.02
L231.829 235.556
L234.104 237.761
L236.38 239.671
L238.939 241.509
L241.499 243.059
L244.058 244.36
L246.902 245.558
L250.031 246.623
L253.444 247.538
L257.141 248.3
L261.407 248.95
L266.526 249.493
L272.783 249.919
L276.196 250.075
L276.196 250.075" style="fill:none;stroke:#008000;stroke-linecap:square;"/>
   </g>
   <g id="line2d_21">
    <path clip-path="url(#p635c18cc2f)" d="
M48.96 250.113
L56.6388 249.713
L62.3268 249.209
L67.1616 248.561
L71.1432 247.811
L74.556 246.962
L77.6844 245.97
L80.5284 244.851
L83.3724 243.482
L85.932 241.997
L88.4916 240.232
L90.7668 238.394
L93.042 236.267
L95.3172 233.817
L97.5924 231.006
L99.8676 227.798
L102.143 224.153
L104.418 220.032
L106.693 215.4
L108.968 210.222
L111.244 204.47
L113.519 198.12
L115.794 191.157
L118.354 182.585
L120.913 173.244
L123.757 162.006
L126.886 148.7
L130.583 131.936
L136.271 104.895
L141.674 79.4842
L144.803 65.7535
L147.362 55.4474
L149.638 47.1984
L151.628 40.8167
L153.335 36.0463
L155.041 31.9806
L156.463 29.1656
L157.885 26.8968
L159.023 25.4881
L160.16 24.4488
L161.014 23.9154
L161.867 23.5946
L162.72 23.4876
L163.573 23.5946
L164.426 23.9154
L165.28 24.4488
L166.417 25.4881
L167.555 26.8968
L168.692 28.6675
L170.114 31.375
L171.536 34.6103
L173.243 39.1515
L174.949 44.3613
L176.94 51.2045
L179.215 59.9069
L181.775 70.6227
L184.903 84.7053
L190.022 108.987
L196.279 138.495
L199.976 154.862
L203.105 167.734
L205.949 178.527
L208.508 187.443
L211.068 195.581
L213.628 202.939
L215.903 208.839
L218.178 214.158
L220.453 218.923
L222.728 223.168
L225.004 226.929
L227.279 230.243
L229.554 233.149
L231.829 235.686
L234.104 237.89
L236.38 239.798
L238.655 241.442
L241.214 243.016
L243.774 244.336
L246.618 245.55
L249.746 246.627
L253.159 247.552
L256.856 248.319
L261.122 248.971
L266.242 249.514
L272.498 249.937
L276.196 250.102
L276.196 250.102" style="fill:none;stroke:#008000;stroke-linecap:square;"/>
   </g>
   <g id="line2d_22">
    <path clip-path="url(#p635c18cc2f)" d="
M48.96 250.137
L56.6388 249.749
L62.3268 249.257
L67.1616 248.62
L71.1432 247.882
L74.556 247.042
L77.6844 246.06
L80.5284 244.948
L83.3724 243.587
L85.932 242.107
L88.2072 240.558
L90.4824 238.756
L92.7576 236.669
L95.0328 234.261
L97.308 231.496
L99.5832 228.335
L101.858 224.74
L104.134 220.672
L106.409 216.095
L108.684 210.973
L110.959 205.278
L113.234 198.985
L115.51 192.079
L118.069 183.57
L120.629 174.288
L123.473 163.109
L126.601 149.857
L130.298 133.137
L135.702 107.471
L141.674 79.3196
L144.803 65.591
L147.362 55.29
L149.638 47.0472
L151.628 40.6716
L153.335 35.9066
L155.041 31.8459
L156.463 29.0346
L157.885 26.769
L159.023 25.3623
L160.16 24.3246
L161.014 23.7919
L161.867 23.4717
L162.72 23.3648
L163.573 23.4717
L164.426 23.7919
L165.28 24.3246
L166.417 25.3623
L167.555 26.769
L168.692 28.5372
L170.114 31.241
L171.536 34.4722
L173.243 39.0082
L174.949 44.2126
L176.94 51.05
L179.215 59.7468
L181.775 70.4588
L184.903 84.5413
L189.738 107.471
L196.279 138.384
L199.976 154.783
L203.105 167.686
L205.949 178.507
L208.508 187.448
L211.068 195.609
L213.628 202.989
L215.903 208.906
L218.178 214.24
L220.453 219.017
L222.728 223.272
L225.004 227.04
L227.279 230.359
L229.554 233.268
L231.829 235.805
L234.104 238.008
L236.38 239.913
L238.655 241.554
L241.214 243.122
L243.774 244.436
L246.618 245.642
L249.746 246.711
L253.159 247.626
L256.856 248.382
L261.122 249.024
L266.242 249.555
L272.498 249.966
L276.196 250.126
L276.196 250.126" style="fill:none;stroke:#008000;stroke-linecap:square;"/>
   </g>
   <g id="line2d_23">
    <path clip-path="url(#p635c18cc2f)" d="
M48.96 250.158
L56.6388 249.782
L62.6112 249.27
L67.446 248.63
L71.4276 247.885
L74.8404 247.036
L77.9688 246.041
L80.8128 244.914
L83.3724 243.683
L85.932 242.209
L88.2072 240.663
L90.4824 238.864
L92.7576 236.778
L95.0328 234.371
L97.308 231.604
L99.5832 228.44
L101.858 224.839
L104.134 220.763
L106.409 216.175
L108.684 211.041
L110.959 205.33
L113.234 199.021
L115.51 192.096
L118.069 183.565
L120.629 174.26
L123.473 163.055
L126.601 149.775
L130.298 133.027
L135.702 107.332
L141.674 79.1691
L144.803 65.4424
L147.362 55.146
L149.638 46.909
L151.628 40.539
L153.335 35.7788
L155.041 31.7227
L156.463 28.9149
L157.885 26.6522
L159.023 25.2474
L160.16 24.2111
L161.014 23.6792
L161.867 23.3594
L162.72 23.2527
L163.573 23.3594
L164.426 23.6792
L165.28 24.2111
L166.417 25.2474
L167.555 26.6522
L168.692 28.4181
L170.114 31.1186
L171.536 34.3461
L173.243 38.8773
L174.949 44.0768
L176.94 50.9088
L179.215 59.6006
L181.775 70.309
L184.903 84.3915
L189.738 107.332
L196.564 139.583
L200.261 155.926
L203.389 168.767
L206.233 179.523
L208.793 188.401
L211.352 196.497
L213.912 203.81
L216.187 209.668
L218.462 214.944
L220.738 219.665
L223.013 223.866
L225.288 227.582
L227.563 230.851
L229.838 233.714
L232.114 236.208
L234.389 238.371
L236.664 240.238
L238.939 241.844
L241.499 243.377
L244.058 244.659
L246.902 245.834
L250.031 246.872
L253.444 247.758
L257.141 248.489
L261.407 249.106
L266.526 249.615
L272.783 250.007
L276.196 250.148
L276.196 250.148" style="fill:none;stroke:#008000;stroke-linecap:square;"/>
   </g>
   <g id="line2d_24">
    <path clip-path="url(#p635c18cc2f)" d="
M48.96 250.177
L56.6388 249.811
L62.6112 249.309
L67.446 248.68
L71.4276 247.944
L74.8404 247.104
L77.9688 246.116
L80.8128 244.996
L83.3724 243.771
L85.932 242.302
L88.2072 240.76
L90.4824 238.964
L92.7576 236.879
L95.0328 234.472
L97.308 231.704
L99.5832 228.536
L101.858 224.93
L104.134 220.847
L106.409 216.249
L108.684 211.103
L110.959 205.379
L113.234 199.054
L115.51 192.112
L118.069 183.56
L120.629 174.234
L123.473 163.005
L126.601 149.701
L130.298 132.927
L135.702 107.205
L141.674 79.031
L144.803 65.3061
L147.362 55.014
L149.638 46.7822
L151.628 40.4173
L153.335 35.6617
L155.041 31.6098
L156.463 28.8051
L157.885 26.5451
L159.023 25.142
L160.16 24.107
L161.014 23.5758
L161.867 23.2564
L162.72 23.1498
L163.573 23.2564
L164.426 23.5758
L165.28 24.107
L166.417 25.142
L167.555 26.5451
L168.692 28.3089
L170.114 31.0063
L171.536 34.2304
L173.243 38.7571
L174.949 43.9522
L176.94 50.7792
L179.215 59.4663
L181.775 70.1715
L184.903 84.2539
L189.738 107.205
L196.564 139.492
L200.261 155.863
L203.389 168.729
L206.233 179.509
L208.793 188.408
L211.352 196.524
L213.912 203.855
L216.187 209.728
L218.462 215.015
L220.738 219.747
L223.013 223.955
L225.288 227.677
L227.563 230.951
L229.838 233.815
L232.114 236.309
L234.389 238.471
L236.664 240.336
L238.939 241.939
L241.499 243.467
L244.058 244.743
L246.902 245.911
L250.031 246.941
L253.444 247.819
L257.141 248.541
L261.407 249.149
L266.526 249.648
L272.783 250.03
L276.196 250.167
L276.196 250.167" style="fill:none;stroke:#008000;stroke-linecap:square;"/>
   </g>
   <g id="line2d_25">
    <path clip-path="url(#p635c18cc2f)" d="
M48.96 250.194
L56.9232 249.819
L62.8956 249.316
L67.7304 248.681
L71.712 247.937
L75.1248 247.086
L78.2532 246.085
L81.0972 244.948
L83.6568 243.702
L86.2164 242.209
L88.4916 240.64
L90.7668 238.812
L93.042 236.691
L95.3172 234.24
L97.5924 231.423
L99.8676 228.199
L102.143 224.53
L104.418 220.378
L106.693 215.704
L108.968 210.477
L111.244 204.666
L113.519 198.25
L115.794 191.214
L118.354 182.556
L120.913 173.125
L123.757 161.787
L126.886 148.376
L130.583 131.505
L136.555 102.986
L141.674 78.9038
L144.803 65.1805
L147.362 54.8924
L149.638 46.6655
L151.628 40.3053
L153.335 35.5538
L155.041 31.5059
L156.463 28.7041
L157.885 26.4465
L159.023 25.045
L160.16 24.0112
L161.014 23.4806
L161.867 23.1615
L162.72 23.0551
L163.573 23.1615
L164.426 23.4806
L165.28 24.0112
L166.417 25.045
L167.555 26.4465
L168.692 28.2084
L170.114 30.903
L171.536 34.1238
L173.243 38.6465
L174.949 43.8374
L176.94 50.66
L179.215 59.3427
L181.775 70.0448
L184.903 84.1271
L189.738 107.087
L196.564 139.408
L200.261 155.804
L203.389 168.694
L206.233 179.497
L208.793 188.415
L211.352 196.549
L213.912 203.897
L216.187 209.783
L218.462 215.082
L220.738 219.823
L223.013 224.039
L225.288 227.766
L227.563 231.043
L229.838 233.909
L232.114 236.403
L234.389 238.564
L236.664 240.426
L238.939 242.026
L241.499 243.549
L244.058 244.82
L246.902 245.982
L250.031 247.005
L253.444 247.875
L257.141 248.589
L261.407 249.188
L266.526 249.678
L273.067 250.064
L276.196 250.184
L276.196 250.184" style="fill:none;stroke:#008000;stroke-linecap:square;"/>
   </g>
   <g id="line2d_26">
    <path clip-path="url(#p635c18cc2f)" d="
M48.96 250.209
L56.9232 249.843
L62.8956 249.349
L67.7304 248.724
L71.712 247.988
L75.1248 247.144
L78.2532 246.15
L81.0972 245.019
L83.6568 243.778
L86.2164 242.289
L88.4916 240.724
L90.7668 238.898
L93.042 236.778
L95.3172 234.327
L97.5924 231.508
L99.8676 228.282
L102.143 224.609
L104.418 220.449
L106.693 215.768
L108.968 210.53
L111.244 204.707
L113.519 198.277
L115.794 191.227
L118.354 182.551
L120.913 173.101
L123.757 161.743
L126.886 148.311
L130.583 131.418
L136.555 102.875
L141.674 78.7863
L144.803 65.0645
L147.362 54.7801
L149.638 46.5576
L151.628 40.2019
L153.335 35.4542
L155.041 31.4098
L156.463 28.6108
L157.885 26.3555
L159.023 24.9554
L160.16 23.9227
L161.014 23.3926
L161.867 23.074
L162.72 22.9676
L163.573 23.074
L164.426 23.3926
L165.28 23.9227
L166.417 24.9554
L167.555 26.3555
L168.692 28.1155
L170.114 30.8076
L171.536 34.0255
L173.243 38.5444
L174.949 43.7315
L176.94 50.5498
L179.215 59.2286
L181.775 69.9278
L184.903 84.01
L189.738 106.979
L196.564 139.33
L200.261 155.75
L203.389 168.663
L206.233 179.486
L208.793 188.422
L211.352 196.573
L213.912 203.937
L216.187 209.834
L218.462 215.144
L220.738 219.894
L223.013 224.116
L225.288 227.848
L227.563 231.128
L229.838 233.996
L232.114 236.49
L234.389 238.65
L236.664 240.51
L238.939 242.106
L241.499 243.626
L244.058 244.892
L246.902 246.047
L250.031 247.064
L253.444 247.926
L257.141 248.632
L261.407 249.224
L266.526 249.706
L273.067 250.083
L276.196 250.2
L276.196 250.2" style="fill:none;stroke:#008000;stroke-linecap:square;"/>
   </g>
   <g id="line2d_27">
    <path clip-path="url(#p635c18cc2f)" d="
M48.96 250.223
L56.9232 249.866
L62.8956 249.38
L67.7304 248.763
L71.712 248.035
L75.1248 247.198
L78.2532 246.21
L81.0972 245.084
L83.6568 243.849
L86.2164 242.364
L88.4916 240.801
L90.7668 238.978
L93.042 236.859
L95.3172 234.409
L97.5924 231.589
L99.8676 228.359
L102.143 224.682
L104.418 220.516
L106.693 215.827
L108.968 210.579
L111.244 204.745
L113.519 198.303
L115.794 191.239
L118.354 182.546
L120.913 173.08
L123.757 161.702
L126.886 148.25
L130.583 131.337
L136.555 102.772
L141.674 78.6773
L144.803 64.957
L147.362 54.676
L149.638 46.4577
L151.628 40.1061
L153.335 35.3619
L155.041 31.3209
L156.463 28.5243
L157.885 26.2711
L159.023 24.8724
L160.16 23.8407
L161.014 23.3112
L161.867 22.9929
L162.72 22.8866
L163.573 22.9929
L164.426 23.3112
L165.28 23.8407
L166.417 24.8724
L167.555 26.2711
L168.692 28.0295
L170.114 30.7191
L171.536 33.9343
L173.243 38.4498
L174.949 43.6333
L176.94 50.4477
L179.215 59.1228
L181.775 69.8194
L184.903 83.9015
L189.738 106.878
L196.564 139.258
L200.261 155.7
L203.389 168.633
L206.233 179.475
L208.793 188.429
L211.352 196.595
L213.912 203.974
L216.187 209.883
L218.462 215.202
L220.738 219.96
L223.013 224.188
L225.288 227.925
L227.563 231.208
L229.838 234.077
L232.114 236.572
L234.389 238.73
L236.664 240.588
L238.939 242.181
L241.499 243.697
L244.058 244.958
L246.902 246.108
L250.031 247.118
L253.444 247.974
L257.141 248.673
L261.407 249.256
L266.526 249.731
L273.067 250.1
L276.196 250.214
L276.196 250.214" style="fill:none;stroke:#008000;stroke-linecap:square;"/>
   </g>
   <g id="line2d_28">
    <path clip-path="url(#p635c18cc2f)" d="
M48.96 250.236
L56.9232 249.886
L62.8956 249.409
L67.7304 248.799
L71.712 248.078
L75.1248 247.248
L78.2532 246.266
L81.0972 245.146
L83.6568 243.914
L86.2164 242.433
L88.4916 240.874
L90.7668 239.052
L93.042 236.935
L95.3172 234.485
L97.5924 231.663
L99.5832 228.859
L101.574 225.715
L103.849 221.669
L106.124 217.107
L108.4 211.994
L110.675 206.299
L112.95 199.999
L115.225 193.078
L117.785 184.545
L120.344 175.232
L123.188 164.012
L126.317 150.709
L130.014 133.924
L135.418 108.156
L141.39 79.8724
L144.518 66.0572
L147.078 55.6709
L149.353 47.3385
L151.344 40.8719
L153.05 36.0189
L154.757 31.8604
L156.179 28.9601
L157.601 26.5986
L158.738 25.1105
L159.876 23.9875
L161.014 23.2356
L161.867 22.9175
L162.72 22.8114
L163.573 22.9175
L164.426 23.2356
L165.28 23.7646
L166.417 24.7953
L167.555 26.1928
L168.692 27.9497
L170.114 30.637
L171.536 33.8497
L173.243 38.3618
L174.949 43.5421
L176.94 50.3528
L179.215 59.0244
L181.775 69.7186
L184.903 83.8006
L189.738 106.785
L196.564 139.191
L200.261 155.654
L203.389 168.606
L206.233 179.466
L208.793 188.435
L211.352 196.616
L213.912 204.008
L216.187 209.928
L218.462 215.256
L220.738 220.021
L223.013 224.256
L225.288 227.997
L227.563 231.283
L229.838 234.153
L232.114 236.648
L234.389 238.805
L236.664 240.661
L238.939 242.251
L241.499 243.763
L244.058 245.02
L246.902 246.164
L250.031 247.168
L253.444 248.017
L257.141 248.71
L261.407 249.287
L266.526 249.754
L273.067 250.115
L276.196 250.227
L276.196 250.227" style="fill:none;stroke:#008000;stroke-linecap:square;"/>
   </g>
   <g id="line2d_29">
    <path clip-path="url(#p635c18cc2f)" d="
M48.96 250.247
L56.9232 249.905
L62.8956 249.435
L67.7304 248.833
L71.712 248.119
L75.1248 247.294
L78.2532 246.318
L81.0972 245.203
L83.6568 243.975
L86.2164 242.498
L88.4916 240.941
L90.7668 239.122
L93.042 237.006
L95.3172 234.556
L97.5924 231.733
L99.5832 228.927
L101.574 225.78
L103.849 221.73
L106.124 217.161
L108.4 212.04
L110.675 206.335
L112.95 200.024
L115.225 193.092
L117.785 184.545
L120.344 175.217
L123.188 163.98
L126.317 150.659
L130.014 133.856
L135.418 108.069
L141.39 79.778
L144.518 65.9639
L147.078 55.5804
L149.353 47.2515
L151.344 40.7885
L153.05 35.9385
L154.757 31.783
L156.179 28.8849
L157.601 26.5253
L158.738 25.0385
L159.876 23.9164
L161.014 23.1651
L161.867 22.8473
L162.72 22.7413
L163.573 22.8473
L164.426 23.1651
L165.28 23.6937
L166.417 24.7235
L167.555 26.1198
L168.692 27.8752
L170.114 30.5605
L171.536 33.7708
L173.243 38.2799
L174.949 43.4571
L176.94 50.2645
L179.215 58.9328
L181.775 69.6248
L184.903 83.7065
L189.738 106.698
L196.564 139.129
L200.261 155.61
L203.389 168.58
L206.233 179.457
L208.793 188.441
L211.352 196.636
L213.912 204.041
L216.187 209.97
L218.462 215.307
L220.738 220.079
L223.013 224.319
L225.288 228.064
L227.563 231.352
L229.838 234.224
L232.114 236.719
L234.389 238.875
L236.664 240.729
L238.939 242.317
L241.499 243.824
L244.058 245.077
L246.902 246.217
L250.031 247.215
L253.444 248.058
L257.141 248.744
L261.407 249.315
L266.526 249.775
L273.067 250.13
L276.196 250.239
L276.196 250.239" style="fill:none;stroke:#008000;stroke-linecap:square;"/>
   </g>
   <g id="line2d_30">
    <path clip-path="url(#p635c18cc2f)" d="
M48.96 250.483
L58.914 250.266
L65.1708 249.919
L70.0056 249.429
L73.7028 248.846
L77.1156 248.083
L79.9596 247.23
L82.5192 246.25
L85.0788 245.027
L87.354 243.699
L89.6292 242.105
L91.9044 240.209
L93.8952 238.268
L95.886 236.034
L97.8768 233.479
L99.8676 230.572
L101.858 227.285
L103.849 223.59
L105.84 219.461
L108.115 214.182
L110.39 208.278
L112.666 201.729
L114.941 194.525
L117.5 185.642
L120.06 175.958
L122.904 164.317
L126.032 150.565
L129.73 133.303
L136.271 101.445
L141.106 78.4095
L144.234 64.5279
L146.794 54.1176
L149.069 45.7733
L151.06 39.2938
L152.766 34.4216
L154.472 30.2316
L155.894 27.2928
L157.316 24.8798
L158.454 23.3399
L159.592 22.1553
L160.729 21.3315
L161.582 20.953
L162.436 20.7807
L163.289 20.8152
L164.142 21.0563
L164.995 21.5034
L165.848 22.1553
L166.986 23.3399
L168.124 24.8798
L169.261 26.7675
L170.683 29.6028
L172.105 32.9468
L173.812 37.5969
L175.518 42.8965
L177.509 49.8283
L179.784 58.6226
L182.344 69.4474
L185.472 83.6977
L190.022 105.613
L197.986 144.036
L201.683 160.658
L204.811 173.701
L207.655 184.605
L210.215 193.579
L212.774 201.729
L215.05 208.278
L217.325 214.182
L219.6 219.461
L221.875 224.144
L224.15 228.265
L226.141 231.44
L228.132 234.244
L230.123 236.704
L232.114 238.851
L234.389 240.958
L236.664 242.736
L238.939 244.226
L241.214 245.464
L243.774 246.601
L246.618 247.598
L249.746 248.432
L253.159 249.096
L257.141 249.631
L261.976 250.039
L268.232 250.324
L276.196 250.48
L276.196 250.48" style="fill:none;stroke:#0000ff;stroke-linecap:square;stroke-width:2;"/>
   </g>
   <g id="line2d_31">
    <path clip-path="url(#p635c18cc2f)" d="
M48.96 250.258
L56.9232 249.923
L62.8956 249.459
L67.7304 248.864
L71.712 248.156
L75.1248 247.338
L78.2532 246.366
L81.0972 245.256
L83.6568 244.033
L86.2164 242.559
L88.4916 241.005
L90.7668 239.188
L93.042 237.072
L95.3172 234.622
L97.5924 231.799
L99.5832 228.991
L101.574 225.841
L103.849 221.786
L106.124 217.212
L108.4 212.083
L110.675 206.369
L112.95 200.048
L115.225 193.105
L117.785 184.544
L120.344 175.202
L123.188 163.95
L126.317 150.613
L130.014 133.793
L135.418 107.988
L141.39 79.6899
L144.518 65.8767
L147.078 55.4959
L149.353 47.1703
L151.344 40.7106
L153.05 35.8635
L154.757 31.7107
L156.179 28.8146
L157.601 26.4569
L158.738 24.9712
L159.876 23.85
L161.014 23.0993
L161.867 22.7818
L162.72 22.6759
L163.573 22.7818
L164.426 23.0993
L165.28 23.6274
L166.417 24.6565
L167.555 26.0517
L168.692 27.8058
L170.114 30.4891
L171.536 33.6972
L173.243 38.2035
L174.949 43.3777
L176.94 50.1819
L179.215 58.8473
L181.775 69.5371
L184.903 83.6187
L189.454 105.245
L196.848 140.377
L200.545 156.791
L203.674 169.687
L206.518 180.487
L209.077 189.398
L211.637 197.518
L214.196 204.847
L216.472 210.71
L218.747 215.983
L221.022 220.693
L223.297 224.874
L225.572 228.563
L227.848 231.799
L230.123 234.622
L232.398 237.072
L234.673 239.188
L236.948 241.005
L239.224 242.559
L241.783 244.033
L244.343 245.256
L247.187 246.366
L250.315 247.338
L253.728 248.156
L257.71 248.864
L262.26 249.431
L267.664 249.87
L274.489 250.195
L276.196 250.25
L276.196 250.25" style="fill:none;stroke:#ff0000;stroke-linecap:square;stroke-width:2;"/>
   </g>
   <g id="patch_3">
    <path d="
M48.96 20.16
L276.48 20.16" style="fill:none;stroke:#000000;stroke-linecap:square;stroke-linejoin:miter;"/>
   </g>
   <g id="patch_4">
    <path d="
M276.48 250.56
L276.48 20.16" style="fill:none;stroke:#000000;stroke-linecap:square;stroke-linejoin:miter;"/>
   </g>
   <g id="patch_5">
    <path d="
M48.96 250.56
L276.48 250.56" style="fill:none;stroke:#000000;stroke-linecap:square;stroke-linejoin:miter;"/>
   </g>
   <g id="patch_6">
    <path d="
M48.96 250.56
L48.96 20.16" style="fill:none;stroke:#000000;stroke-linecap:square;stroke-linejoin:miter;"/>
   </g>
   <g id="matplotlib.axis_1">
    <g id="xtick_1">
     <g id="line2d_32">
      <defs>
       <path d="
M0 0
L0 -4" id="m93b0483c22" style="stroke:#000000;stroke-width:0.5;"/>
      </defs>
      <g>
       <use style="stroke:#000000;stroke-width:0.5;" x="48.96" xlink:href="#m93b0483c22" y="250.56"/>
      </g>
     </g>
     <g id="line2d_33">
      <defs>
       <path d="
M0 0
L0 4" id="m741efc42ff" style="stroke:#000000;stroke-width:0.5;"/>
      </defs>
      <g>
       <use style="stroke:#000000;stroke-width:0.5;" x="48.96" xlink:href="#m741efc42ff" y="20.16"/>
      </g>
     </g>
     <g id="text_1">
      <!-- 4 -->
      <defs>
       <path d="
M10.5938 35.5
L73.1875 35.5
L73.1875 27.2031
L10.5938 27.2031
z
" id="BitstreamVeraSans-Roman-2212"/>
       <path d="
M37.7969 64.3125
L12.8906 25.3906
L37.7969 25.3906
z

M35.2031 72.9062
L47.6094 72.9062
L47.6094 25.3906
L58.0156 25.3906
L58.0156 17.1875
L47.6094 17.1875
L47.6094 0
L37.7969 0
L37.7969 17.1875
L4.89062 17.1875
L4.89062 26.7031
z
" id="BitstreamVeraSans-Roman-34"/>
      </defs>
      <g transform="translate(41.086875 263.678125)scale(0.12 -0.12)">
       <use xlink:href="#BitstreamVeraSans-Roman-2212"/>
       <use x="83.7890625" xlink:href="#BitstreamVeraSans-Roman-34"/>
      </g>
     </g>
    </g>
    <g id="xtick_2">
     <g id="line2d_34">
      <g>
       <use style="stroke:#000000;stroke-width:0.5;" x="77.4" xlink:href="#m93b0483c22" y="250.56"/>
      </g>
     </g>
     <g id="line2d_35">
      <g>
       <use style="stroke:#000000;stroke-width:0.5;" x="77.4" xlink:href="#m741efc42ff" y="20.16"/>
      </g>
     </g>
     <g id="text_2">
      <!-- 3 -->
      <defs>
       <path d="
M40.5781 39.3125
Q47.6562 37.7969 51.625 33
Q55.6094 28.2188 55.6094 21.1875
Q55.6094 10.4062 48.1875 4.48438
Q40.7656 -1.42188 27.0938 -1.42188
Q22.5156 -1.42188 17.6562 -0.515625
Q12.7969 0.390625 7.625 2.20312
L7.625 11.7188
Q11.7188 9.32812 16.5938 8.10938
Q21.4844 6.89062 26.8125 6.89062
Q36.0781 6.89062 40.9375 10.5469
Q45.7969 14.2031 45.7969 21.1875
Q45.7969 27.6406 41.2812 31.2656
Q36.7656 34.9062 28.7188 34.9062
L20.2188 34.9062
L20.2188 43.0156
L29.1094 43.0156
Q36.375 43.0156 40.2344 45.9219
Q44.0938 48.8281 44.0938 54.2969
Q44.0938 59.9062 40.1094 62.9062
Q36.1406 65.9219 28.7188 65.9219
Q24.6562 65.9219 20.0156 65.0312
Q15.375 64.1562 9.8125 62.3125
L9.8125 71.0938
Q15.4375 72.6562 20.3438 73.4375
Q25.25 74.2188 29.5938 74.2188
Q40.8281 74.2188 47.3594 69.1094
Q53.9062 64.0156 53.9062 55.3281
Q53.9062 49.2656 50.4375 45.0938
Q46.9688 40.9219 40.5781 39.3125" id="BitstreamVeraSans-Roman-33"/>
      </defs>
      <g transform="translate(69.67125 263.678125)scale(0.12 -0.12)">
       <use xlink:href="#BitstreamVeraSans-Roman-2212"/>
       <use x="83.7890625" xlink:href="#BitstreamVeraSans-Roman-33"/>
      </g>
     </g>
    </g>
    <g id="xtick_3">
     <g id="line2d_36">
      <g>
       <use style="stroke:#000000;stroke-width:0.5;" x="105.84" xlink:href="#m93b0483c22" y="250.56"/>
      </g>
     </g>
     <g id="line2d_37">
      <g>
       <use style="stroke:#000000;stroke-width:0.5;" x="105.84" xlink:href="#m741efc42ff" y="20.16"/>
      </g>
     </g>
     <g id="text_3">
      <!-- 2 -->
      <defs>
       <path d="
M19.1875 8.29688
L53.6094 8.29688
L53.6094 0
L7.32812 0
L7.32812 8.29688
Q12.9375 14.1094 22.625 23.8906
Q32.3281 33.6875 34.8125 36.5312
Q39.5469 41.8438 41.4219 45.5312
Q43.3125 49.2188 43.3125 52.7812
Q43.3125 58.5938 39.2344 62.25
Q35.1562 65.9219 28.6094 65.9219
Q23.9688 65.9219 18.8125 64.3125
Q13.6719 62.7031 7.8125 59.4219
L7.8125 69.3906
Q13.7656 71.7812 18.9375 73
Q24.125 74.2188 28.4219 74.2188
Q39.75 74.2188 46.4844 68.5469
Q53.2188 62.8906 53.2188 53.4219
Q53.2188 48.9219 51.5312 44.8906
Q49.8594 40.875 45.4062 35.4062
Q44.1875 33.9844 37.6406 27.2188
Q31.1094 20.4531 19.1875 8.29688" id="BitstreamVeraSans-Roman-32"/>
      </defs>
      <g transform="translate(98.23125 263.678125)scale(0.12 -0.12)">
       <use xlink:href="#BitstreamVeraSans-Roman-2212"/>
       <use x="83.7890625" xlink:href="#BitstreamVeraSans-Roman-32"/>
      </g>
     </g>
    </g>
    <g id="xtick_4">
     <g id="line2d_38">
      <g>
       <use style="stroke:#000000;stroke-width:0.5;" x="134.28" xlink:href="#m93b0483c22" y="250.56"/>
      </g>
     </g>
     <g id="line2d_39">
      <g>
       <use style="stroke:#000000;stroke-width:0.5;" x="134.28" xlink:href="#m741efc42ff" y="20.16"/>
      </g>
     </g>
     <g id="text_4">
      <!-- 1 -->
      <defs>
       <path d="
M12.4062 8.29688
L28.5156 8.29688
L28.5156 63.9219
L10.9844 60.4062
L10.9844 69.3906
L28.4219 72.9062
L38.2812 72.9062
L38.2812 8.29688
L54.3906 8.29688
L54.3906 0
L12.4062 0
z
" id="BitstreamVeraSans-Roman-31"/>
      </defs>
      <g transform="translate(126.624375 263.678125)scale(0.12 -0.12)">
       <use xlink:href="#BitstreamVeraSans-Roman-2212"/>
       <use x="83.7890625" xlink:href="#BitstreamVeraSans-Roman-31"/>
      </g>
     </g>
    </g>
    <g id="xtick_5">
     <g id="line2d_40">
      <g>
       <use style="stroke:#000000;stroke-width:0.5;" x="162.72" xlink:href="#m93b0483c22" y="250.56"/>
      </g>
     </g>
     <g id="line2d_41">
      <g>
       <use style="stroke:#000000;stroke-width:0.5;" x="162.72" xlink:href="#m741efc42ff" y="20.16"/>
      </g>
     </g>
     <g id="text_5">
      <!-- 0 -->
      <defs>
       <path d="
M31.7812 66.4062
Q24.1719 66.4062 20.3281 58.9062
Q16.5 51.4219 16.5 36.375
Q16.5 21.3906 20.3281 13.8906
Q24.1719 6.39062 31.7812 6.39062
Q39.4531 6.39062 43.2812 13.8906
Q47.125 21.3906 47.125 36.375
Q47.125 51.4219 43.2812 58.9062
Q39.4531 66.4062 31.7812 66.4062
M31.7812 74.2188
Q44.0469 74.2188 50.5156 64.5156
Q56.9844 54.8281 56.9844 36.375
Q56.9844 17.9688 50.5156 8.26562
Q44.0469 -1.42188 31.7812 -1.42188
Q19.5312 -1.42188 13.0625 8.26562
Q6.59375 17.9688 6.59375 36.375
Q6.59375 54.8281 13.0625 64.5156
Q19.5312 74.2188 31.7812 74.2188" id="BitstreamVeraSans-Roman-30"/>
      </defs>
      <g transform="translate(159.6965625 263.678125)scale(0.12 -0.12)">
       <use xlink:href="#BitstreamVeraSans-Roman-30"/>
      </g>
     </g>
    </g>
    <g id="xtick_6">
     <g id="line2d_42">
      <g>
       <use style="stroke:#000000;stroke-width:0.5;" x="191.16" xlink:href="#m93b0483c22" y="250.56"/>
      </g>
     </g>
     <g id="line2d_43">
      <g>
       <use style="stroke:#000000;stroke-width:0.5;" x="191.16" xlink:href="#m741efc42ff" y="20.16"/>
      </g>
     </g>
     <g id="text_6">
      <!-- 1 -->
      <g transform="translate(188.555625 263.678125)scale(0.12 -0.12)">
       <use xlink:href="#BitstreamVeraSans-Roman-31"/>
      </g>
     </g>
    </g>
    <g id="xtick_7">
     <g id="line2d_44">
      <g>
       <use style="stroke:#000000;stroke-width:0.5;" x="219.6" xlink:href="#m93b0483c22" y="250.56"/>
      </g>
     </g>
     <g id="line2d_45">
      <g>
       <use style="stroke:#000000;stroke-width:0.5;" x="219.6" xlink:href="#m741efc42ff" y="20.16"/>
      </g>
     </g>
     <g id="text_7">
      <!-- 2 -->
      <g transform="translate(216.823125 263.678125)scale(0.12 -0.12)">
       <use xlink:href="#BitstreamVeraSans-Roman-32"/>
      </g>
     </g>
    </g>
    <g id="xtick_8">
     <g id="line2d_46">
      <g>
       <use style="stroke:#000000;stroke-width:0.5;" x="248.04" xlink:href="#m93b0483c22" y="250.56"/>
      </g>
     </g>
     <g id="line2d_47">
      <g>
       <use style="stroke:#000000;stroke-width:0.5;" x="248.04" xlink:href="#m741efc42ff" y="20.16"/>
      </g>
     </g>
     <g id="text_8">
      <!-- 3 -->
      <g transform="translate(245.1609375 263.678125)scale(0.12 -0.12)">
       <use xlink:href="#BitstreamVeraSans-Roman-33"/>
      </g>
     </g>
    </g>
    <g id="xtick_9">
     <g id="line2d_48">
      <g>
       <use style="stroke:#000000;stroke-width:0.5;" x="276.48" xlink:href="#m93b0483c22" y="250.56"/>
      </g>
     </g>
     <g id="line2d_49">
      <g>
       <use style="stroke:#000000;stroke-width:0.5;" x="276.48" xlink:href="#m741efc42ff" y="20.16"/>
      </g>
     </g>
     <g id="text_9">
      <!-- 4 -->
      <g transform="translate(273.2925 263.678125)scale(0.12 -0.12)">
       <use xlink:href="#BitstreamVeraSans-Roman-34"/>
      </g>
     </g>
    </g>
    <g id="text_10">
     <!-- x -->
     <defs>
      <path d="
M54.8906 54.6875
L35.1094 28.0781
L55.9062 0
L45.3125 0
L29.3906 21.4844
L13.4844 0
L2.875 0
L24.125 28.6094
L4.6875 54.6875
L15.2812 54.6875
L29.7812 35.2031
L44.2812 54.6875
z
" id="BitstreamVeraSans-Roman-78"/>
     </defs>
     <g transform="translate(159.538125 280.291875)scale(0.12 -0.12)">
      <use xlink:href="#BitstreamVeraSans-Roman-78"/>
     </g>
    </g>
   </g>
   <g id="matplotlib.axis_2">
    <g id="ytick_1">
     <g id="line2d_50">
      <defs>
       <path d="
M0 0
L4 0" id="m728421d6d4" style="stroke:#000000;stroke-width:0.5;"/>
      </defs>
      <g>
       <use style="stroke:#000000;stroke-width:0.5;" x="48.96" xlink:href="#m728421d6d4" y="250.56"/>
      </g>
     </g>
     <g id="line2d_51">
      <defs>
       <path d="
M0 0
L-4 0" id="mcb0005524f" style="stroke:#000000;stroke-width:0.5;"/>
      </defs>
      <g>
       <use style="stroke:#000000;stroke-width:0.5;" x="276.48" xlink:href="#mcb0005524f" y="250.56"/>
      </g>
     </g>
     <g id="text_11">
      <!-- 0.00 -->
      <defs>
       <path d="
M10.6875 12.4062
L21 12.4062
L21 0
L10.6875 0
z
" id="BitstreamVeraSans-Roman-2e"/>
      </defs>
      <g transform="translate(19.829375 253.87125)scale(0.12 -0.12)">
       <use xlink:href="#BitstreamVeraSans-Roman-30"/>
       <use x="63.623046875" xlink:href="#BitstreamVeraSans-Roman-2e"/>
       <use x="95.41015625" xlink:href="#BitstreamVeraSans-Roman-30"/>
       <use x="159.033203125" xlink:href="#BitstreamVeraSans-Roman-30"/>
      </g>
     </g>
    </g>
    <g id="ytick_2">
     <g id="line2d_52">
      <g>
       <use style="stroke:#000000;stroke-width:0.5;" x="48.96" xlink:href="#m728421d6d4" y="221.76"/>
      </g>
     </g>
     <g id="line2d_53">
      <g>
       <use style="stroke:#000000;stroke-width:0.5;" x="276.48" xlink:href="#mcb0005524f" y="221.76"/>
      </g>
     </g>
     <g id="text_12">
      <!-- 0.05 -->
      <defs>
       <path d="
M10.7969 72.9062
L49.5156 72.9062
L49.5156 64.5938
L19.8281 64.5938
L19.8281 46.7344
Q21.9688 47.4688 24.1094 47.8281
Q26.2656 48.1875 28.4219 48.1875
Q40.625 48.1875 47.75 41.5
Q54.8906 34.8125 54.8906 23.3906
Q54.8906 11.625 47.5625 5.09375
Q40.2344 -1.42188 26.9062 -1.42188
Q22.3125 -1.42188 17.5469 -0.640625
Q12.7969 0.140625 7.71875 1.70312
L7.71875 11.625
Q12.1094 9.23438 16.7969 8.0625
Q21.4844 6.89062 26.7031 6.89062
Q35.1562 6.89062 40.0781 11.3281
Q45.0156 15.7656 45.0156 23.3906
Q45.0156 31 40.0781 35.4375
Q35.1562 39.8906 26.7031 39.8906
Q22.75 39.8906 18.8125 39.0156
Q14.8906 38.1406 10.7969 36.2812
z
" id="BitstreamVeraSans-Roman-35"/>
      </defs>
      <g transform="translate(20.080625 225.07125)scale(0.12 -0.12)">
       <use xlink:href="#BitstreamVeraSans-Roman-30"/>
       <use x="63.623046875" xlink:href="#BitstreamVeraSans-Roman-2e"/>
       <use x="95.41015625" xlink:href="#BitstreamVeraSans-Roman-30"/>
       <use x="159.033203125" xlink:href="#BitstreamVeraSans-Roman-35"/>
      </g>
     </g>
    </g>
    <g id="ytick_3">
     <g id="line2d_54">
      <g>
       <use style="stroke:#000000;stroke-width:0.5;" x="48.96" xlink:href="#m728421d6d4" y="192.96"/>
      </g>
     </g>
     <g id="line2d_55">
      <g>
       <use style="stroke:#000000;stroke-width:0.5;" x="276.48" xlink:href="#mcb0005524f" y="192.96"/>
      </g>
     </g>
     <g id="text_13">
      <!-- 0.10 -->
      <g transform="translate(19.829375 196.27125)scale(0.12 -0.12)">
       <use xlink:href="#BitstreamVeraSans-Roman-30"/>
       <use x="63.623046875" xlink:href="#BitstreamVeraSans-Roman-2e"/>
       <use x="95.41015625" xlink:href="#BitstreamVeraSans-Roman-31"/>
       <use x="159.033203125" xlink:href="#BitstreamVeraSans-Roman-30"/>
      </g>
     </g>
    </g>
    <g id="ytick_4">
     <g id="line2d_56">
      <g>
       <use style="stroke:#000000;stroke-width:0.5;" x="48.96" xlink:href="#m728421d6d4" y="164.16"/>
      </g>
     </g>
     <g id="line2d_57">
      <g>
       <use style="stroke:#000000;stroke-width:0.5;" x="276.48" xlink:href="#mcb0005524f" y="164.16"/>
      </g>
     </g>
     <g id="text_14">
      <!-- 0.15 -->
      <g transform="translate(20.080625 167.47125)scale(0.12 -0.12)">
       <use xlink:href="#BitstreamVeraSans-Roman-30"/>
       <use x="63.623046875" xlink:href="#BitstreamVeraSans-Roman-2e"/>
       <use x="95.41015625" xlink:href="#BitstreamVeraSans-Roman-31"/>
       <use x="159.033203125" xlink:href="#BitstreamVeraSans-Roman-35"/>
      </g>
     </g>
    </g>
    <g id="ytick_5">
     <g id="line2d_58">
      <g>
       <use style="stroke:#000000;stroke-width:0.5;" x="48.96" xlink:href="#m728421d6d4" y="135.36"/>
      </g>
     </g>
     <g id="line2d_59">
      <g>
       <use style="stroke:#000000;stroke-width:0.5;" x="276.48" xlink:href="#mcb0005524f" y="135.36"/>
      </g>
     </g>
     <g id="text_15">
      <!-- 0.20 -->
      <g transform="translate(19.829375 138.67125)scale(0.12 -0.12)">
       <use xlink:href="#BitstreamVeraSans-Roman-30"/>
       <use x="63.623046875" xlink:href="#BitstreamVeraSans-Roman-2e"/>
       <use x="95.41015625" xlink:href="#BitstreamVeraSans-Roman-32"/>
       <use x="159.033203125" xlink:href="#BitstreamVeraSans-Roman-30"/>
      </g>
     </g>
    </g>
    <g id="ytick_6">
     <g id="line2d_60">
      <g>
       <use style="stroke:#000000;stroke-width:0.5;" x="48.96" xlink:href="#m728421d6d4" y="106.56"/>
      </g>
     </g>
     <g id="line2d_61">
      <g>
       <use style="stroke:#000000;stroke-width:0.5;" x="276.48" xlink:href="#mcb0005524f" y="106.56"/>
      </g>
     </g>
     <g id="text_16">
      <!-- 0.25 -->
      <g transform="translate(20.080625 109.87125)scale(0.12 -0.12)">
       <use xlink:href="#BitstreamVeraSans-Roman-30"/>
       <use x="63.623046875" xlink:href="#BitstreamVeraSans-Roman-2e"/>
       <use x="95.41015625" xlink:href="#BitstreamVeraSans-Roman-32"/>
       <use x="159.033203125" xlink:href="#BitstreamVeraSans-Roman-35"/>
      </g>
     </g>
    </g>
    <g id="ytick_7">
     <g id="line2d_62">
      <g>
       <use style="stroke:#000000;stroke-width:0.5;" x="48.96" xlink:href="#m728421d6d4" y="77.76"/>
      </g>
     </g>
     <g id="line2d_63">
      <g>
       <use style="stroke:#000000;stroke-width:0.5;" x="276.48" xlink:href="#mcb0005524f" y="77.76"/>
      </g>
     </g>
     <g id="text_17">
      <!-- 0.30 -->
      <g transform="translate(19.829375 81.07125)scale(0.12 -0.12)">
       <use xlink:href="#BitstreamVeraSans-Roman-30"/>
       <use x="63.623046875" xlink:href="#BitstreamVeraSans-Roman-2e"/>
       <use x="95.41015625" xlink:href="#BitstreamVeraSans-Roman-33"/>
       <use x="159.033203125" xlink:href="#BitstreamVeraSans-Roman-30"/>
      </g>
     </g>
    </g>
    <g id="ytick_8">
     <g id="line2d_64">
      <g>
       <use style="stroke:#000000;stroke-width:0.5;" x="48.96" xlink:href="#m728421d6d4" y="48.96"/>
      </g>
     </g>
     <g id="line2d_65">
      <g>
       <use style="stroke:#000000;stroke-width:0.5;" x="276.48" xlink:href="#mcb0005524f" y="48.96"/>
      </g>
     </g>
     <g id="text_18">
      <!-- 0.35 -->
      <g transform="translate(20.080625 52.27125)scale(0.12 -0.12)">
       <use xlink:href="#BitstreamVeraSans-Roman-30"/>
       <use x="63.623046875" xlink:href="#BitstreamVeraSans-Roman-2e"/>
       <use x="95.41015625" xlink:href="#BitstreamVeraSans-Roman-33"/>
       <use x="159.033203125" xlink:href="#BitstreamVeraSans-Roman-35"/>
      </g>
     </g>
    </g>
    <g id="ytick_9">
     <g id="line2d_66">
      <g>
       <use style="stroke:#000000;stroke-width:0.5;" x="48.96" xlink:href="#m728421d6d4" y="20.16"/>
      </g>
     </g>
     <g id="line2d_67">
      <g>
       <use style="stroke:#000000;stroke-width:0.5;" x="276.48" xlink:href="#mcb0005524f" y="20.16"/>
      </g>
     </g>
     <g id="text_19">
      <!-- 0.40 -->
      <g transform="translate(19.829375 23.47125)scale(0.12 -0.12)">
       <use xlink:href="#BitstreamVeraSans-Roman-30"/>
       <use x="63.623046875" xlink:href="#BitstreamVeraSans-Roman-2e"/>
       <use x="95.41015625" xlink:href="#BitstreamVeraSans-Roman-34"/>
       <use x="159.033203125" xlink:href="#BitstreamVeraSans-Roman-30"/>
      </g>
     </g>
    </g>
    <g id="text_20">
     <!-- P(x) -->
     <defs>
      <path d="
M19.6719 64.7969
L19.6719 37.4062
L32.0781 37.4062
Q38.9688 37.4062 42.7188 40.9688
Q46.4844 44.5312 46.4844 51.125
Q46.4844 57.6719 42.7188 61.2344
Q38.9688 64.7969 32.0781 64.7969
z

M9.8125 72.9062
L32.0781 72.9062
Q44.3438 72.9062 50.6094 67.3594
Q56.8906 61.8125 56.8906 51.125
Q56.8906 40.3281 50.6094 34.8125
Q44.3438 29.2969 32.0781 29.2969
L19.6719 29.2969
L19.6719 0
L9.8125 0
z
" id="BitstreamVeraSans-Roman-50"/>
      <path d="
M31 75.875
Q24.4688 64.6562 21.2812 53.6562
Q18.1094 42.6719 18.1094 31.3906
Q18.1094 20.125 21.3125 9.0625
Q24.5156 -2 31 -13.1875
L23.1875 -13.1875
Q15.875 -1.70312 12.2344 9.375
Q8.59375 20.4531 8.59375 31.3906
Q8.59375 42.2812 12.2031 53.3125
Q15.8281 64.3594 23.1875 75.875
z
" id="BitstreamVeraSans-Roman-28"/>
      <path d="
M8.01562 75.875
L15.8281 75.875
Q23.1406 64.3594 26.7812 53.3125
Q30.4219 42.2812 30.4219 31.3906
Q30.4219 20.4531 26.7812 9.375
Q23.1406 -1.70312 15.8281 -13.1875
L8.01562 -13.1875
Q14.5 -2 17.7031 9.0625
Q20.9062 20.125 20.9062 31.3906
Q20.9062 42.6719 17.7031 53.6562
Q14.5 64.6562 8.01562 75.875" id="BitstreamVeraSans-Roman-29"/>
     </defs>
     <g transform="translate(12.33375 146.1065625)rotate(-90.0)scale(0.12 -0.12)">
      <use xlink:href="#BitstreamVeraSans-Roman-50"/>
      <use x="60.302734375" xlink:href="#BitstreamVeraSans-Roman-28"/>
      <use x="99.31640625" xlink:href="#BitstreamVeraSans-Roman-78"/>
      <use x="158.49609375" xlink:href="#BitstreamVeraSans-Roman-29"/>
     </g>
    </g>
   </g>
  </g>
 </g>
 <defs>
  <clipPath id="p635c18cc2f">
   <rect height="230.4" width="227.52" x="48.96" y="20.16"/>
  </clipPath>
 </defs>
</svg>
